<?xml version="1.0" encoding="UTF-8" standalone="no"?>
<svg width="433px" height="433px" viewBox="0 0 433 433" version="1.1" xmlns="http://www.w3.org/2000/svg" xmlns:xlink="http://www.w3.org/1999/xlink" xmlns:sketch="http://www.bohemiancoding.com/sketch/ns">
    <!-- Generator: Sketch 3.3.3 (12072) - http://www.bohemiancoding.com/sketch -->
    <title>VarnishTYPO3Bunny</title>
    <desc>Created with Sketch.</desc>
    <defs>
        <linearGradient x1="50.0000355%" y1="97.2340484%" x2="50.0000355%" y2="26.9310762%" id="linearGradient-1">
            <stop stop-color="#D9EFFC" offset="0%"></stop>
            <stop stop-color="#CBE9FA" offset="7.07%"></stop>
            <stop stop-color="#ADDCF7" offset="22.82%"></stop>
            <stop stop-color="#92D2F4" offset="39.4%"></stop>
            <stop stop-color="#7DCBF2" offset="56.94%"></stop>
            <stop stop-color="#6FC7F1" offset="76.12%"></stop>
            <stop stop-color="#69C5F1" offset="100%"></stop>
        </linearGradient>
        <linearGradient x1="35.484995%" y1="50%" x2="110.174984%" y2="50%" id="linearGradient-2">
            <stop stop-color="#F9F9F8" offset="0.51%"></stop>
            <stop stop-color="#EAF4FA" offset="11%"></stop>
            <stop stop-color="#DAEFFB" offset="25.45%"></stop>
            <stop stop-color="#D3EDFC" offset="35.53%"></stop>
            <stop stop-color="#6DC3EF" offset="73.03%"></stop>
            <stop stop-color="#85BDE8" offset="99.44%"></stop>
            <stop stop-color="#85BDE8" offset="100%"></stop>
        </linearGradient>
        <radialGradient cx="49.9999837%" cy="50.0000337%" fx="49.9999837%" fy="50.0000337%" r="49.138652%" id="radialGradient-3">
            <stop stop-color="#FFFFFF" offset="0%"></stop>
            <stop stop-color="#69C5F1" stop-opacity="0" offset="100%"></stop>
        </radialGradient>
        <linearGradient x1="48.7740567%" y1="-45.7807491%" x2="49.8338921%" y2="80.244161%" id="linearGradient-4">
            <stop stop-color="#E0E9AE" offset="0%"></stop>
            <stop stop-color="#94C11F" offset="52.73%"></stop>
            <stop stop-color="#5BAA34" offset="100%"></stop>
        </linearGradient>
        <linearGradient x1="23.17494%" y1="86.8971057%" x2="56.2468882%" y2="47.8769809%" id="linearGradient-5">
            <stop stop-color="#EDEDED" offset="0%"></stop>
            <stop stop-color="#F6F6F6" offset="23.94%"></stop>
            <stop stop-color="#FDFDFD" offset="57.79%"></stop>
            <stop stop-color="#FFFFFF" offset="100%"></stop>
        </linearGradient>
        <linearGradient x1="14.6830338%" y1="79.610722%" x2="50.9266719%" y2="48.5892914%" id="linearGradient-6">
            <stop stop-color="#EDEDED" offset="0%"></stop>
            <stop stop-color="#F6F6F6" offset="23.94%"></stop>
            <stop stop-color="#FDFDFD" offset="57.79%"></stop>
            <stop stop-color="#FFFFFF" offset="100%"></stop>
        </linearGradient>
        <linearGradient x1="10.8047528%" y1="101.217478%" x2="124.038191%" y2="-70.9886307%" id="linearGradient-7">
            <stop stop-color="#EDEDED" offset="0%"></stop>
            <stop stop-color="#F2F2F2" offset="14.99%"></stop>
            <stop stop-color="#F4F4F4" offset="39.51%"></stop>
            <stop stop-color="#FFFFFF" offset="100%"></stop>
        </linearGradient>
    </defs>
    <g id="Page-1" stroke="none" stroke-width="1" fill="none" fill-rule="evenodd" sketch:type="MSPage">
        <g id="varnish_superbunny_poster_creativecommons" sketch:type="MSLayerGroup" transform="translate(-86.000000, -187.000000)">
            <rect id="Rectangle-path" fill="url(#linearGradient-1)" sketch:type="MSShapeGroup" x="16.75" y="1.128" width="1407.25" height="907.872"></rect>
            <path d="M887.567,0.128 L318.119,758.463 L680.036,0.128 L492.776,0.128 L275.701,743.89 L335.738,0.128 L168.877,0.128 L230.611,743.89 L25.47,46.848 L25.47,419.446 L188.284,758.622 L25.47,542.787 L25.47,662.248 L153.753,786.185 L25.47,702.84 L25.47,775.416 L131.289,823.299 L25.47,797.541 L25.47,856.481 L123.494,865.434 L25.47,874.596 L25.47,908 L129.942,908 L131.373,907.648 L130.601,908 L376.671,908 L375.364,907.408 L377.794,908 L851.873,908 L383.157,865.194 L1424,772.706 L1424,546.643 L375.279,823.06 L1424,366.169 L1424,76.75 L362.646,786.021 L1172.649,0.128 L887.567,0.128 Z" id="Shape" opacity="0.2" fill="url(#linearGradient-2)" sketch:type="MSShapeGroup"></path>
            <ellipse id="Oval" fill="url(#radialGradient-3)" sketch:type="MSShapeGroup" cx="307.961" cy="410.034" rx="307.518" ry="296.828"></ellipse>
            <path d="M210.867,246.333 C210.867,237.126 202.656,229.627 192.374,229.272 C188.074,224.152 181.197,220.837 173.445,220.837 C172.117,220.837 170.816,220.939 169.547,221.126 C165.676,216.709 159.632,213.862 152.839,213.862 C144.445,213.862 137.195,218.195 133.777,224.481 C133.353,224.46 132.929,224.446 132.5,224.446 C120.37,224.446 110.535,233.169 110.535,243.93 C110.535,246.944 111.308,249.799 112.686,252.347 L209.635,252.347 C210.43,250.474 210.867,248.449 210.867,246.333 L210.867,246.333 Z" id="Shape" fill="#FFFFFF" sketch:type="MSShapeGroup"></path>
            <path d="M582.831138,395.347683 C582.831138,381.271683 570.281138,369.813683 554.569138,369.273683 C547.997138,361.449683 537.487138,356.379683 525.640138,356.379683 C523.612138,356.379683 521.622138,356.536683 519.683138,356.820683 C513.766138,350.071683 504.531138,345.718683 494.148138,345.718683 C481.320138,345.718683 470.241138,352.342683 465.017138,361.949683 C464.369138,361.912683 463.721138,361.892683 463.068138,361.892683 C444.528138,361.892683 429.499138,375.221683 429.499138,391.668683 C429.499138,396.270683 430.680138,400.641683 432.785138,404.528683 L580.949138,404.528683 C582.163138,401.671683 582.831138,398.580683 582.831138,395.347683 L582.831138,395.347683 Z" id="Shape" fill="#FFFFFF" sketch:type="MSShapeGroup"></path>
            <path d="M101.255,322.099 C101.255,315.424 107.209,309.986 114.664,309.73 C117.78,306.018 122.768,303.614 128.388,303.614 C129.35,303.614 130.293,303.687 131.214,303.823 C134.021,300.618 138.402,298.556 143.33,298.556 C149.413,298.556 154.67,301.699 157.148,306.252 C157.454,306.237 157.762,306.228 158.075,306.228 C166.87,306.228 173.997,312.554 173.997,320.354 C173.997,322.542 173.437,324.609 172.437,326.458 L102.146,326.458 C101.569,325.104 101.255,323.634 101.255,322.099 L101.255,322.099 Z" id="Shape" fill="#FFFFFF" sketch:type="MSShapeGroup"></path>
            <path d="M59.8805,386.034183 C59.8805,378.440183 66.6535,372.256183 75.1335,371.966183 C78.6785,367.742183 84.3525,365.007183 90.7465,365.007183 C91.8405,365.007183 92.9145,365.090183 93.9625,365.245183 C97.1565,361.599183 102.1375,359.255183 107.7435,359.255183 C114.6645,359.255183 120.6435,362.831183 123.4625,368.009183 C123.8115,367.991183 124.1635,367.979183 124.5185,367.979183 C134.5225,367.979183 142.6295,375.179183 142.6295,384.049183 C142.6295,386.538183 141.9935,388.894183 140.8565,390.992183 L60.8975,390.992183 C60.2385,389.452183 59.8805,387.780183 59.8805,386.034183 L59.8805,386.034183 Z" id="Shape" fill="#FFFFFF" sketch:type="MSShapeGroup"></path>
            <path d="M64.9268774,613.925032 L64.9268774,641.148032 L601.264877,641.148032 C423.934877,577.036032 243.645877,565.334032 64.9268774,613.925032 L64.9268774,613.925032 Z" id="Shape" fill="url(#linearGradient-4)" sketch:type="MSShapeGroup"></path>
        </g>
        <g id="VarnishTYPO3Bunny" sketch:type="MSArtboardGroup">
            <g id="Group" sketch:type="MSLayerGroup" transform="translate(106.000000, 22.000000)">
                <path d="M13.929,121.484 C-10.991,161.908 -4.073,196.819 53.411,229.987 C110.894,263.156 177.697,257.271 202.617,216.849 C227.54,176.424 201.139,116.771 143.656,83.603 C86.173,50.436 38.852,81.06 13.929,121.484 L13.929,121.484 Z" id="Shape" fill="url(#linearGradient-5)" sketch:type="MSShapeGroup"></path>
                <path d="M116.5,132.533 C113.884,136.78 115.319,142.287 119.709,144.813 C124.093,147.347 129.788,145.954 132.401,141.712 C135.015,137.472 133.579,131.964 129.188,129.434 C124.805,126.901 119.116,128.293 116.5,132.533 L116.5,132.533 Z" id="Shape" fill="#010202" sketch:type="MSShapeGroup"></path>
                <path d="M52.581,103.48 C51.231,105.667 51.971,108.504 54.234,109.809 C56.496,111.115 59.429,110.397 60.776,108.21 C62.126,106.022 61.387,103.185 59.123,101.881 C56.859,100.574 53.928,101.293 52.581,103.48 L52.581,103.48 Z" id="Shape" fill="#010202" sketch:type="MSShapeGroup"></path>
                <path d="M70.266,148.824 L71.357,136.065 L58.948,140.521 L70.266,148.824 Z" id="Shape" fill="#010202" sketch:type="MSShapeGroup"></path>
                <path d="M91.456,246.374 C77.915,255.136 63.195,329.999 64.758,359.715 C66.322,358.152 170.574,295.757 258.189,309.297 C255.061,306.169 204.837,233.515 181.46,236.02 C159.158,238.409 104.997,237.612 91.456,246.374 L91.456,246.374 Z" id="Shape" fill="#E20B6A" sketch:type="MSShapeGroup"></path>
                <path d="M175.412,238.525 C175.412,238.525 213.079,268.502 209.952,274.757 C206.824,281.013 198.481,290.397 193.267,286.227 C193.267,286.227 178.671,281.013 175.543,273.715" id="Shape" fill="#FFFFFF" sketch:type="MSShapeGroup"></path>
                <path d="M193.287,265.074 C209.03,300.552 197.602,329.863 170.328,341.484 C143.059,353.106 110.273,342.635 94.532,307.155 C78.795,271.678 88.136,233.492 115.408,221.871 C142.68,210.249 177.55,229.598 193.287,265.074 L193.287,265.074 Z" id="Shape" fill="url(#linearGradient-6)" sketch:type="MSShapeGroup"></path>
                <path d="M92.053,246.042 C92.053,246.042 121.523,255.269 173.561,236.684 C173.561,236.684 178.853,238.253 177.942,240.6 C177.942,240.338 138.167,256.422 90.725,247.038 C90.726,246.905 92.053,246.042 92.053,246.042 L92.053,246.042 Z" id="Shape" fill="#E20B6A" sketch:type="MSShapeGroup"></path>
                <path d="M113.242,332.757 C113.242,332.757 141.135,359.083 149.997,364.296 C150.779,364.296 155.693,365.962 158.858,363.383 C162.379,360.518 166.418,353.999 157.816,344.615 C149.214,335.231 115.589,335.103 113.242,332.757 L113.242,332.757 Z" id="Shape" fill="url(#linearGradient-7)" sketch:type="MSShapeGroup"></path>
                <path d="M199.003,308.643 C199.003,308.643 205.293,338.491 197.439,341.488 C190.27,344.224 183.883,342.532 181.799,336.276 C179.712,330.02 199.003,308.643 199.003,308.643 L199.003,308.643 Z" id="Shape" fill="#FFFFFF" sketch:type="MSShapeGroup"></path>
                <path d="M68.003,74.507 C68.003,74.507 188.054,-21.36 233.932,5.749 C237.746,7.689 246.441,10.962 242.272,18.261 C238.103,25.559 107.769,51.626 85.872,72.479" id="Shape" fill="#FFFFFF" sketch:type="MSShapeGroup"></path>
                <path d="M155.73,91.248 C155.73,91.248 274.47,28.238 299.859,50.305 C325.248,72.372 308.322,69.777 299.859,69.777 C291.396,69.777 178.091,81.942 163.583,97.519" id="Shape" fill="#FFFFFF" sketch:type="MSShapeGroup"></path>
                <ellipse id="Oval" fill="#EDEDED" sketch:type="MSShapeGroup" cx="133.139" cy="287.261" rx="27.612" ry="26.55"></ellipse>
                <g id="Shape-+-Shape" transform="translate(115.000000, 272.000000)" fill="#FF8700" sketch:type="MSShapeGroup">
                    <path d="M25.5142678,23.2671603 C25.0172864,23.4120983 24.6207375,23.4664499 24.1006407,23.4664499 C19.839832,23.4664499 13.5835255,8.75249916 13.5835255,3.8553321 C13.5835255,2.05266734 14.015146,1.45125395 14.6249148,0.934912787 C9.41039606,1.53632618 3.15329243,3.42760784 1.15261343,5.83168599 C0.720195754,6.43388708 0.457158275,7.3779525 0.457158275,8.58077929 C0.457158275,16.2254643 8.71414382,33.5727156 14.5384313,33.5727156 C17.2337683,33.5731094 21.7767444,29.1958282 25.5142678,23.2671603" id="Shape"></path>
                    <path d="M23.4234298,0.934912787 C28.8117127,0.934912787 34.2035825,1.79351213 34.2035825,4.79939752 C34.2035825,10.8974221 30.2903022,18.2872843 28.292413,18.2872843 C24.7286537,18.2872843 20.2956751,8.49334394 20.2956751,3.59617689 C20.2960736,1.3630309 21.1648944,0.934912787 23.4234298,0.934912787" id="Shape"></path>
                </g>
            </g>
        </g>
    </g>
</svg>